<?xml version="1.0" encoding="UTF-8" standalone="no"?>
<!-- Created with Inkscape (http://www.inkscape.org/) -->

<svg
   width="48"
   height="48"
   viewBox="0 0 48 48"
   version="1.1"
   id="svg1"
   inkscape:version="1.4.2 (ebf0e940d0, 2025-05-08)"
   sodipodi:docname="favicon.svg"
   inkscape:export-filename="favicon.svg"
   inkscape:export-xdpi="96"
   inkscape:export-ydpi="96"
   xmlns:inkscape="http://www.inkscape.org/namespaces/inkscape"
   xmlns:sodipodi="http://sodipodi.sourceforge.net/DTD/sodipodi-0.dtd"
   xmlns:xlink="http://www.w3.org/1999/xlink"
   xmlns="http://www.w3.org/2000/svg"
   xmlns:svg="http://www.w3.org/2000/svg">
  <sodipodi:namedview
     id="namedview1"
     pagecolor="#505050"
     bordercolor="#eeeeee"
     borderopacity="1"
     inkscape:showpageshadow="0"
     inkscape:pageopacity="0"
     inkscape:pagecheckerboard="0"
     inkscape:deskcolor="#505050"
     inkscape:document-units="px"
     inkscape:zoom="10.282511"
     inkscape:cx="18.186219"
     inkscape:cy="31.898823"
     inkscape:window-width="1912"
     inkscape:window-height="1019"
     inkscape:window-x="0"
     inkscape:window-y="0"
     inkscape:window-maximized="1"
     inkscape:current-layer="layer1" />
  <defs
     id="defs1">
    <linearGradient
       id="linearGradient14"
       inkscape:collect="always">
      <stop
         style="stop-color:#e9df9d;stop-opacity:1;"
         offset="0.38764036"
         id="stop15" />
      <stop
         style="stop-color:#e9df9d;stop-opacity:0;"
         offset="1"
         id="stop16" />
    </linearGradient>
    <inkscape:perspective
       sodipodi:type="inkscape:persp3d"
       inkscape:vp_x="0 : 24 : 1"
       inkscape:vp_y="0 : 1000 : 0"
       inkscape:vp_z="48 : 24 : 1"
       inkscape:persp3d-origin="24 : 16 : 1"
       id="perspective3" />
    <linearGradient
       inkscape:collect="always"
       xlink:href="#linearGradient14"
       id="linearGradient16"
       x1="11.914782"
       y1="-19.262493"
       x2="39.31739"
       y2="-40.221493"
       gradientUnits="userSpaceOnUse" />
    <filter
       id="mask-powermask-path-effect31_inverse"
       inkscape:label="filtermask-powermask-path-effect31"
       style="color-interpolation-filters:sRGB"
       height="100"
       width="100"
       x="-50"
       y="-50">
      <feColorMatrix
         id="mask-powermask-path-effect31_primitive1"
         values="1"
         type="saturate"
         result="fbSourceGraphic" />
      <feColorMatrix
         id="mask-powermask-path-effect31_primitive2"
         values="-1 0 0 0 1 0 -1 0 0 1 0 0 -1 0 1 0 0 0 1 0 "
         in="fbSourceGraphic" />
    </filter>
  </defs>
  <g
     inkscape:label="background"
     inkscape:groupmode="layer"
     id="layer1" />
  <g
     inkscape:groupmode="layer"
     id="layer3"
     inkscape:label="coffee"
     style="display:inline"
     sodipodi:insensitive="true">
    <rect
       style="display:inline;fill:url(#linearGradient16);stroke:#000000;stroke-width:0.165083;stroke-opacity:0"
       id="rect9"
       width="25.98"
       height="20.066145"
       x="17.390108"
       y="-33.916241"
       rx="3.7134671"
       ry="10.595737"
       transform="rotate(90)" />
    <path
       id="path37"
       style="display:inline;fill:#e9df9d;fill-opacity:1;stroke:#000000;stroke-width:0.152775;stroke-opacity:0"
       d="m 36.328351,25.432245 a 4.2892884,6.7119395 18.573704 0 0 -2.419922,0.816406 l 0.0332,12.189452 A 4.2892884,6.7119395 18.573704 0 0 38.77366,34.01037 4.2892884,6.7119395 18.573704 0 0 38.75413,26.93615 4.2892884,6.7119395 18.573704 0 0 36.328349,25.432245 Z m -0.609375,2.201171 a 3.2020164,5.1052356 17.655272 0 1 1.80664,1.146485 3.2020164,5.1052356 17.655272 0 1 0.01367,5.390624 3.2020164,5.1052356 17.655272 0 1 -3.597657,3.376954 l -0.02539,-9.292969 a 3.2020164,5.1052356 17.655272 0 1 1.802735,-0.621094 z" />
    <ellipse
       style="fill:#6f5206;fill-opacity:0.809104;stroke:#000000;stroke-width:0.136086;stroke-opacity:0"
       id="path39"
       cx="24"
       cy="21.308573"
       rx="8.5519733"
       ry="2.691427" />
  </g>
  <g
     inkscape:groupmode="layer"
     id="layer4"
     inkscape:label="cloud"
     style="display:inline"
     sodipodi:insensitive="true">
    <path
       id="path47"
       style="fill:#cccccc;fill-opacity:0.809104;stroke:#000000;stroke-width:0.151;stroke-opacity:0"
       d="m 17.461465,4.9300958 a 6.6131706,2.7716966 0 0 0 -6.613281,2.771484 6.6131706,2.7716966 0 0 0 1.736328,1.873047 6.710423,2.285434 0 0 0 -4.1679688,2.1152342 6.710423,2.285434 0 0 0 6.7109378,2.285157 6.710423,2.285434 0 0 0 0.261719,-0.002 3.7928479,2.090929 0 0 0 -0.888672,1.34375 3.7928479,2.090929 0 0 0 3.792969,2.091797 3.7928479,2.090929 0 0 0 3.792968,-2.091797 3.7928479,2.090929 0 0 0 -2.412109,-1.947265 6.710423,2.285434 0 0 0 2.162109,-1.679688 6.710423,2.285434 0 0 0 -1.583984,-1.474609 6.6131706,2.7716966 0 0 0 3.822266,-2.5136722 6.6131706,2.7716966 0 0 0 -6.613282,-2.771484 z m 3.410156,12.6289062 a 1.2156564,1.3129089 0 0 0 -1.216796,1.3125 1.2156564,1.3129089 0 0 0 1.216796,1.314453 1.2156564,1.3129089 0 0 0 1.214844,-1.314453 1.2156564,1.3129089 0 0 0 -1.214844,-1.3125 z" />
  </g>
</svg>
