<?xml version="1.0" encoding="UTF-8" standalone="no"?>
<!-- Created with Inkscape (http://www.inkscape.org/) -->

<svg
   width="48"
   height="48"
   viewBox="0 0 48 48"
   version="1.1"
   id="svg1"
   sodipodi:docname="dark.svg"
   inkscape:version="1.4.2 (ebf0e940d0, 2025-05-08)"
   xmlns:inkscape="http://www.inkscape.org/namespaces/inkscape"
   xmlns:sodipodi="http://sodipodi.sourceforge.net/DTD/sodipodi-0.dtd"
   xmlns="http://www.w3.org/2000/svg"
   xmlns:svg="http://www.w3.org/2000/svg">
  <sodipodi:namedview
     id="namedview1"
     pagecolor="#505050"
     bordercolor="#eeeeee"
     borderopacity="1"
     inkscape:showpageshadow="0"
     inkscape:pageopacity="0"
     inkscape:pagecheckerboard="0"
     inkscape:deskcolor="#505050"
     inkscape:document-units="px"
     inkscape:zoom="12.654265"
     inkscape:cx="23.035711"
     inkscape:cy="24.497669"
     inkscape:window-width="1912"
     inkscape:window-height="1019"
     inkscape:window-x="0"
     inkscape:window-y="0"
     inkscape:window-maximized="1"
     inkscape:current-layer="layer1" />
  <defs
     id="defs1" />
  <g
     inkscape:label="Layer 1"
     inkscape:groupmode="layer"
     id="layer1">
    <path
       id="path1"
       style="fill:#ffffff;stroke:#ffffff;stroke-width:0;stroke-linecap:round;stroke-linejoin:round;stroke-miterlimit:0;paint-order:stroke fill markers;fill-opacity:0.74752027;stroke-dasharray:none"
       d="M 24 8.1152344 A 15.883972 15.883972 0 0 0 9.9199219 16.716797 A 11.498099 11.893224 0 0 1 19.005859 12.107422 A 11.498099 11.893224 0 0 1 30.503906 24 A 11.498099 11.893224 0 0 1 19.005859 35.892578 A 11.498099 11.893224 0 0 1 9.9199219 31.283203 A 15.883972 15.883972 0 0 0 24 39.884766 A 15.883972 15.883972 0 0 0 39.884766 24 A 15.883972 15.883972 0 0 0 24 8.1152344 z " />
  </g>
</svg>
